<svg height="512" viewBox="0 0 128 128" width="512" xmlns="http://www.w3.org/2000/svg"><g><path d="m63.329 33.593a10.345 10.345 0 1 0 -10.345-10.345 10.357 10.357 0 0 0 10.345 10.345zm0-17.19a6.845 6.845 0 1 1 -6.845 6.845 6.853 6.853 0 0 1 6.845-6.848z"/><path d="m105.167 97.954-9.94-22.254a7.937 7.937 0 0 0 -7.541-4.728c-.176-.009.84 0-15.626-.005v-6.631a8.242 8.242 0 0 0 3.707.884c.242.014 5.772.007 18.013.008a8 8 0 1 0 0-16h-14.745l-10.135-10.147a7.927 7.927 0 0 0 -5.657-2.343 9.166 9.166 0 0 0 -9.243 9.29v29.861a11.093 11.093 0 0 0 11.08 11.08h17.655l7.825 17.51a7.919 7.919 0 0 0 4.44 4.206 7.949 7.949 0 0 0 6.128-.169 8 8 0 0 0 4.044-10.562zm-3.106 4.87a4.441 4.441 0 0 1 -2.362 2.494 4.488 4.488 0 0 1 -5.938-2.265l-8.29-18.55a1.75 1.75 0 0 0 -1.6-1.036h-18.791a7.59 7.59 0 0 1 -7.581-7.58v-29.859a5.648 5.648 0 0 1 5.641-5.78 4.517 4.517 0 0 1 3.282 1.308l10.649 10.659a1.751 1.751 0 0 0 1.239.513h15.47a4.5 4.5 0 0 1 0 9c-19.59 0-17.654 0-17.991-.009-2.465.091-3.655-1.86-4.242-2.318a1.75 1.75 0 0 0 -2.987 1.238v12.08a1.75 1.75 0 0 0 1.75 1.75c.1 0 17.517.012 17.62 0a4.506 4.506 0 0 1 4.1 2.663l9.939 22.247a4.483 4.483 0 0 1 .092 3.445z"/><path d="m80.8 92.318a5.256 5.256 0 0 0 -7.221 1.726 22.1 22.1 0 1 1 -24.787-32.832 5.249 5.249 0 1 0 -2.815-10.112 32.6 32.6 0 1 0 36.55 48.44 5.257 5.257 0 0 0 -1.727-7.222zm-1.256 5.39a29.1 29.1 0 1 1 -32.627-43.239 1.75 1.75 0 0 1 .937 3.372 25.6 25.6 0 1 0 28.708 38.035 1.75 1.75 0 0 1 2.983 1.832z"/></g></svg>