<svg id="_x33_0" enable-background="new 0 0 64 64" height="512" viewBox="0 0 64 64" width="512" xmlns="http://www.w3.org/2000/svg"><g><path d="m17.414 13 4.293-4.293-1.414-1.414-4.293 4.293-4.293-4.293-1.414 1.414 4.293 4.293-4.293 4.293 1.414 1.414 4.293-4.293 4.293 4.293 1.414-1.414z"/><path d="m40 17c-3.14 0-6.159.619-9 1.832v-14.832c0-1.654-1.346-3-3-3h-24c-1.654 0-3 1.346-3 3v18c0 1.654 1.346 3 3 3h12.586l3.293 3.293c.073.073.156.132.237.194-1.182 2.035-2.036 4.216-2.545 6.513h-2.571c-1.103 0-2 .897-2 2v6c0 1.103.897 2 2 2h2.568c2.322 10.475 11.612 18 22.432 18 12.683 0 23-10.317 23-23s-10.317-23-23-23zm-22.586 6h-13.414c-.552 0-1-.448-1-1v-18c0-.552.448-1 1-1h24c.552 0 1 .448 1 1v18c0 .552-.448 1-1 1h-6v3.586c0 .338-.469.531-.707.293zm35.638 24.395-2.396-2.395h3.49c-.296.839-.665 1.638-1.094 2.395zm-4.396-4.395-1.656-1.656v-4.344h10v6zm-6-6h2.344v2.344zm-2-2-8.048-8.048c2.2-1.245 4.728-1.952 7.392-1.952 6.409 0 12.052 4.052 14.146 10zm-9.754-6.927 21.024 21.024c-.816 1.068-1.765 2.02-2.827 2.829l-21.024-21.023c.815-1.069 1.765-2.02 2.827-2.83zm16.489 24.975c-2.199 1.245-4.727 1.952-7.391 1.952-6.409 0-12.052-4.052-14.146-10h13.49zm-20.443-20.443 2.396 2.395h-3.49c.296-.839.665-1.638 1.094-2.395zm4.396 4.395 6 6h-14.344v-6zm-10.344 6h-2v-6h2zm-6-6h2v6h-2zm25 24c-9.731 0-18.106-6.663-20.383-16h4.145c2.18 7.1 8.74 12 16.237 12 7.498 0 14.057-4.9 16.237-12h.764c1.103 0 2-.897 2-2v-6c0-1.103-.897-2-2-2h-.763c-2.18-7.1-8.74-12-16.237-12-7.498 0-14.057 4.9-16.237 12h-4.14c.525-2.151 1.376-4.192 2.555-6.082 1.044-.266 1.822-1.206 1.822-2.332v-1.586h4c1.654 0 3-1.346 3-3v-.97c2.819-1.341 5.842-2.03 9-2.03 11.579 0 21 9.421 21 21s-9.421 21-21 21z"/><path d="m11 27h-2c0 .561-.217.801-.707 1.291-.546.545-1.293 1.292-1.293 2.705 0 1.415.747 2.162 1.293 2.708.49.49.707.732.707 1.294s-.217.804-.707 1.294c-.546.546-1.293 1.293-1.293 2.708h2c0-.563.217-.804.707-1.294.546-.546 1.293-1.293 1.293-2.708s-.747-2.162-1.293-2.708c-.49-.49-.707-.731-.707-1.294 0-.561.217-.801.707-1.291.546-.545 1.293-1.292 1.293-2.705z"/><path d="m3 39c0-.563.217-.804.707-1.294.546-.546 1.293-1.293 1.293-2.708s-.747-2.162-1.293-2.708c-.49-.49-.707-.731-.707-1.294 0-.561.217-.801.707-1.291.546-.545 1.293-1.292 1.293-2.705h-2c0 .561-.217.801-.707 1.291-.546.545-1.293 1.292-1.293 2.705 0 1.415.747 2.162 1.293 2.708.49.49.707.732.707 1.294s-.217.804-.707 1.294c-.546.546-1.293 1.293-1.293 2.708 0 2.206 1.794 4 4 4h4v-2h-4c-1.103 0-2-.897-2-2z"/></g></svg>